<svg width="200" height="200" viewBox="0 0 200 200" xmlns="http://www.w3.org/2000/svg">
  <defs>
    <linearGradient id="logoGradient1" x1="0%" y1="0%" x2="100%" y2="100%">
      <stop offset="0%" style="stop-color:#667eea;stop-opacity:1" />
      <stop offset="100%" style="stop-color:#764ba2;stop-opacity:1" />
    </linearGradient>
    <linearGradient id="logoGradient2" x1="0%" y1="100%" x2="100%" y2="0%">
      <stop offset="0%" style="stop-color:#f093fb;stop-opacity:1" />
      <stop offset="100%" style="stop-color:#f5576c;stop-opacity:1" />
    </linearGradient>
    <filter id="shadow" x="-20%" y="-20%" width="140%" height="140%">
      <feDropShadow dx="0" dy="4" stdDeviation="6" flood-color="#667eea" flood-opacity="0.3"/>
    </filter>
  </defs>
  
  <circle cx="100" cy="100" r="90" fill="url(#logoGradient1)" filter="url(#shadow)"/>
  
  <g transform="translate(50, 45)">
    <rect x="0" y="0" width="100" height="75" rx="8" fill="white" fill-opacity="0.95"/>
    <rect x="10" y="15" width="35" height="8" rx="2" fill="url(#logoGradient1)"/>
    <rect x="10" y="30" width="50" height="6" rx="2" fill="#e0e7ff"/>
    <rect x="10" y="42" width="40" height="6" rx="2" fill="#e0e7ff"/>
    <rect x="10" y="54" width="45" height="6" rx="2" fill="#e0e7ff"/>
    
    <rect x="60" y="20" width="30" height="30" rx="6" fill="url(#logoGradient2)"/>
    <path d="M68 35 L73 40 L82 30" stroke="white" stroke-width="3" fill="none" stroke-linecap="round" stroke-linejoin="round"/>
  </g>
  
  <g transform="translate(55, 125)">
    <circle cx="15" cy="15" r="12" fill="white" fill-opacity="0.9"/>
    <circle cx="45" cy="15" r="12" fill="white" fill-opacity="0.9"/>
    <circle cx="75" cy="15" r="12" fill="white" fill-opacity="0.9"/>
    <circle cx="30" cy="35" r="12" fill="white" fill-opacity="0.9"/>
    <circle cx="60" cy="35" r="12" fill="white" fill-opacity="0.9"/>
  </g>
</svg>